<?xml version="1.0" encoding="UTF-8"?>
<svg id="Layer_2" data-name="Layer 2" xmlns="http://www.w3.org/2000/svg" viewBox="0 0 566.63 343.15">
  <defs>
    <style>
      .cls-1 {
        fill: #b5182f;
      }
    </style>
  </defs>
  <g id="Layer_1-2" data-name="Layer 1">
    <g>
      <path class="cls-1" d="M360.39,267.87c-.29-3.3-2.04-6.72-4.54-8.93-2.85-2.51-6.49-4.53-10.23-5.06-3.21-.45-6.09-.71-9.12-1.72-2.22-.74-4.55-.78-6.91-.82-13.58-.23-14.98,1.83-30.62-.43-3.66-.53-10.28-4.55-15.17-4.97l-12.09-1.03c-3.99-.34-7.3.57-10.98,1.78-4.09,1.34-8.17,2.61-12.4,3.62-5.09,1.21-10.26,1.25-15.48,1.89-3.5.43-6.79.53-10.27.53h-17.51s-26.12-2.09-26.12-2.09c-5.46-.43-10.88-.71-16.28.08l-10.57,1.55c-2.19.32-4.25,1.88-6.3,2.62-3.08,1.12-5.32,3.18-6.46,6.27-.74,2.01.01,4.04,2.19,4.9,4.47,1.76,8.32-.37,13.33,1.34.19.44.33,1.45.08,1.76-.25.31-1.01.63-1.52.69l-10.84,1.31-7.9.46c-7.83.46-15.29.92-23.1.57l-33.05-1.47-12.87-.6c-7.53-.35-14.65-.28-22.08.83-5.93.88-11.58,1.69-17.11,4.16-6.68,1.24-12.31,4.61-17.62,8.65-3.29,2.51-5.89,5.12-7.57,8.92-1.95,4.41-1.65,8.99.49,13.31,1.3,2.64,2.59,5.1,5.12,6.84,2.11,1.45,4.28,2.98,6.58,4.11,2.07,1.01,3.9,1.95,5.73,3.28,4.12,2.99,8.93,4.23,13.67,5.86,3.44,1.18,6.6,1.91,10.25,2.32,17.02,1.91,23.77.19,40.02-4.18,7.45-2,14.72-3.49,22.37-4.44,4.83-.6,9.39-1.17,14.26-1.25,11.19-.19,21.31-2.06,32.19-.56,2.96.41,5.75,1.08,8.65,1.75,3.42.79,10.18,9.97,16.72,9.97,3.12,0,6.24.36,9.29.07l13.95-1.3c5.14-.48,10.09-1.87,15.02-3.22,3.55-.97,6.44-2.76,9.25-5.01,2.4-1.92,5.02-3.52,6.88-6.03,2.69-3.63,3.06-8.9,6-14.48,3.02-5.73,8.67-5.03,15.2-8.92,2.15-1.28,4.44-1.85,6.78-2.57,7.78-2.39,15.44-2.08,23.42-1.03,5.12.68,9.86,1.14,14.96,2.1,7.21,1.36,14.4,2.1,21.77,2.4,4.29.17,8.46-.23,12.65-.79,3.87-.51,7.54-1.72,11.25-2.91,1.99-.64,3.81-1.74,5.63-2.68,5.72-2.95,11.56-10.99,11-17.46ZM22.51,311.21c-6.04-2.64-5.44-3.68-8.65-9.51-1.82-3.31-.72-8.74,1.63-7.95,1.29.44-.24,2.53,1.87,8.11.75,1.99,1.92,3.84,3.55,5.23.82.7,1.75,1.28,2.75,1.7.6.26,1.84.47,1.97,1.26.01.07.02.14.01.2-.04,1.22-2.35,1.29-3.12.95ZM32.48,314.3c-.3,1.06-2.32,1.34-3.13,1.22-.78-.11-2.26-.24-2.17-1.37.05-.69.93-1.44,1.55-1.64.8-.26,3.65.38,3.78,1.36.02.15,0,.29-.03.42ZM163.97,257.87c.03-.4.57-1.07,1.05-1.27,1.9-.78,5.55-.02,5.5,1.52-.06,1.56-6.76,2.27-6.55-.26ZM168.72,314.29c-.38-1.34,1.21-2.1,2.37-2.13.58-.02,1.84.92,1.7,1.52-.34,1.53-3.56,2.4-4.07.61ZM193.97,323.32c-3.89.23-7.41-.24-11.21-.78-1.5-.21-3-.64-4.31-1.42-.68-.41-2.77-1.69-2.94-2.52-.47-2.4,3.51-1.4,4.58-.88,4.4,2.14,9.27,3.23,14.03,1.28,1.26-.52,4.18-.71,4.23,1.35.04,1.82-2.84,2.87-4.39,2.96ZM202.16,262.62c-8.74,1.89-11.47-.68-18.71-1.34-3.11-.28-7.97-.43-10.22-1.59-.26-.14,1.52-1.84,6.12-1.14,6.01.91,11.77,1.76,17.79,1.94,2.03.06,3.6-.74,5.67.8.24.18-.28,1.26-.65,1.34ZM291.91,278.36c-.73.11-2.42-.58-2.07-1.56.37-1.03,3.11-1.67,3.6-.79.26,1.5-.68,2.23-1.53,2.36ZM336.51,277.82s-7.99,2.38-7.99,2.38c-3.39,1.01-6.94,1.35-10.46,1.4-1.25,0-2.49,0-3.74,0-2.27,0-4.49-.18-6.75-.09-1.39.05-2.41-.33-3.7-.65-1.35-.33-2.6-.33-3.81-1.13-.73-.48-1.86-1.54-.73-2.17.98-.54,3.1.4,4.06.63.59.14,1.18.29,1.77.43,1.93.47,3.9.72,5.89.92,1.62.2,3.39-.18,5.06-.42,5.57-.8,10.82-1.99,16.24-3.54,1.1-.32,2.44-.49,3.6-.4,1.58.13,2.69,2.02.57,2.66Z"/>
      <path class="cls-1" d="M156.25,333.11c-.83-2.95-2.77-5-4.9-7.05-1.23-1.18-2.56-2.53-4.1-3.18-3.13-1.33-6.27-.73-9.47-.1-2.42.48-5.08.4-7.01,2.15-1.72,1.56-3.47,3.35-4.76,5.36-1.74,2.71-2.3,6.45-1.58,9.54.97,4.21,12.09,3.52,15.52,2.75,4.48-1.01,8.57-1.56,12.94-2.2,3.06-.45,4.12-4.58,3.37-7.26ZM128.35,338.23c-.79.2-1.59-.14-1.86-.71-.32-.7.31-1.34,1.1-1.61.77-.26,1.63-.14,1.89.72.16.53-.29,1.39-1.13,1.61ZM132.55,331.45c-1.09.63-1.93,2.9-3.47,2.45-1.6-.47.37-3.99,2.94-5.23,1.21-.58,5.45-1.71,5.68-.15.25,1.7-2.98,1.7-5.15,2.94Z"/>
      <path class="cls-1" d="M115.47,253.77c-1.72-2.3-4.15-3.97-6.5-5.64-4.17-2.96-8.1-2.98-13.22-2.36-4.4.53-8.54,3.16-10.07,7.44-.75,2.1-1.02,4.63.27,6.55,1.24,1.83,3.79,3.58,6.09,3.54,2.31-.04,4.45-.51,6.7-.83,6.13-.85,10.62,1.35,14.92-1,2.85-1.56,3.8-5.05,1.81-7.71ZM89.23,257.22c-.4.33-1.24.33-1.72-.17-.27-.28-.45-1.05-.3-1.31.15-.26.65-.55,1.07-.61.41-.06,1.12.35,1.26.69.15.39-.02,1.16-.31,1.4ZM97.05,250.7l-3.73,1.08c-.6.17-2.29,2.58-3.64,1.43-.34-.29-.44-1.27-.16-1.69,2.85-4.36,8.86-3.77,8.58-1.86-.05.36-.67.93-1.05,1.04Z"/>
      <path class="cls-1" d="M308.96,311.04c-.62-3.61-3.43-6.45-6.83-7.46-5.36-3-10.19-4.03-15.88-5.42-3.87-.94-7.45-1.55-11.48-1.76-13.29-.69-17.36-.31-27.98,7.54-5.93,4.39-9.36,7.81-10.31,15.52-.26,2.13-.75,4.34-.01,6.42.64,1.83,1.94,4.02,3.59,5.09,2.28,1.46,4.79,2.78,7.45,3.37,3.72.83,7.88.95,11.59.02,3.05-.76,6.05-2.5,8.55-4.26,3.96-2.78,7.31-4.01,12.27-4.73,4.16-.6,8.13-1.36,12.25-2.2l8.67-1.78c3.96-.81,8.77-6.62,8.13-10.35ZM242.93,324.27c-.47.8-2.33.44-3.03-.15-.61-1.34.17-3.52,1.83-3.55,1.03-.01,1.96,2.39,1.19,3.7ZM251.3,310.8c-5.86,8.24-9.09,5.91-7.82,3.91,2.2-3.46,5.19-6.06,8.58-8.28l5.86-3.84c1.33-.87,3.81-.54,4.2.96-2.01,4.01-7.66,2.8-10.82,7.25Z"/>
      <g>
        <g>
          <path class="cls-1" d="M438.4,120.48c.52.11,1.24.12,1.6,0l-.36-5.08c-.7,1.77-.99,3.24-1.23,5.08Z"/>
          <path class="cls-1" d="M566.21,189.59c-.5-7.11-.85-13.92-.84-21.09l.03-38.69c0-9.4.45-18.5.1-27.83l-.26-6.75-.46-24.63c-.02-1.3-.02-2.71-.57-3.87-2.16-1.09-4.39-1.27-6.75-1.51l-13.09-1.29-32.92-1.72-45.25-1.73-12.62-.56c-6.97-.31-3.38-1.27-11.32,1.04-2.26-5.2-5.21-9.68-8.53-14.18-2.39-3.24-3.83-6.89-5.84-10.36l-6.21-10.72c-3.63-6.27-7.1-12.42-11.38-18.27l-2.08-2.84c-1.84-2.51-5.21-3.77-8.29-3.57-1.23.08-2.25.88-3.33,1.39-1.59-2.97-6.83-2.65-8.99-.81-2.46-1.5-4.61-2.49-7.19-.39-1.72,1.41-2.79,3.41-3.25,5.57l-6.85,5.15c-2.39,1.8-4.82,3.46-6.9,5.6l-4,4.12-8.84,8.06-5.91,6.33c-2.03,2.18-4.57,3.74-6.52,6l-6.24,7.25c-1.31,1.52-1.73,3.23-2.03,5.15-.46,2.93-.58,5.8.51,8.64-1.63,1.97-2.69,3.93-3.87,6.16-3.95,7.45-6.17,15.74-5.84,24.26.07,1.9,1.05,3.65,1.44,5.4.42,1.85,1.37,3.11,2.8,4.22,1.9,1.48,3.97,2.09,6.4,2.2,2.39.1,4.42-.58,6.27-2.08,4.58-3.71,5.31-8.58,4.2-14.22l-1.25-6.36c-.82-4.16-1.59-8.24-1.75-12.45,4.03-1.12,3.81-3.9,7.33-6.99l5.07-4.46,7.34-6.42c2.71-2.37,5.13-4.8,7.37-7.62,2.22-2.78,4.9-4.78,7.53-7.13l7.59-6.76c2.25.85,4.71.68,6.27-1.28,1.68,1.08,3.57,1.43,5.24.2,2.29,2.46,3.88,1.37,6.36.12l2.26,4.72c.84,1.76,1.64,3.51,2.81,5.09,3.07,4.15,5.61,8.39,8.22,12.85l6.34,10.81c1.25,2.12,2.91,3.86,4.01,6.16l-8.79,4.71c-3.1,1.66-5.79,3.59-8.77,5.45l-12.96,8.1-3.66,2.43c-2.12,1.41-2.89,3.16-2.85,5.56.07,3.58-.19,7.1-.22,10.7l-.11,11.83c-.04,3.91.37,7.61.45,11.53l.25,12,.26,5.89.26,5.15.23,7.84-.19,7.11-.02,14.94.12,6.06-.25,19.68c-.04,2.76-.49,5.36-.67,8.1l-.54,7.95c-.19,2.83-.02,5.6.01,8.47.05,4.24-.32,8.24-.6,12.51l-1.77,27.66-1.21,18.41c-.19,2.88-.33,5.63-.12,8.43.36,4.83,6.49,3.3,10.23,3.18l14.44-.46c1.97-.06,3.91-.2,5.84.05,4.79.63,9.41.91,14.26,1l8.6.15,19.09-.3,16.33-.08,19.45-.04,8.03.16c1.78.04,2.39-1.13,3.68-1.83l13.79-7.45,8.52-4.77,13.82-7.96c3.3-1.9,6.29-3.89,9.47-5.99,3.7-2.44,7.52-4.42,11.46-6.43,2-1.02,3.8-2.17,5.64-3.38,1.32-.87,2.16-1.77,2.34-3.46.24-2.27-.06-4.49-.18-6.82-.2-3.77-.22-7.48-.18-11.28l.14-11.29-.03-18.12.46-11.53c.18-4.66-.02-9.07-.35-13.73ZM326.83,94.49c-.85-5.18-.97-11.12,1.64-15.72.11-.19.79-.27.9-.11,1.5,2.37-2.25,6.69-.34,15.11.16.7-.1,1.35-.65,1.63-.43.21-1.45-.31-1.55-.91ZM329.36,99.31c-.39-.22-.97-1.04-.71-1.52.23-.43,1.04-.61,1.38-.47.4.17,1.07.87,1,1.32-.17,1.06-1.18.96-1.67.67ZM340.79,56.32c-1.08.74-1.87,1.4-2.81,2.34l-4.82,2.09c-.61-3.64-1.13-10.74,3.93-11.37,1.2-.15,2.57.81,2.99,1.95.61,1.62.82,3.41.71,5ZM341.16,49.53l-2.81-2.05c3.66-5.43,7.07-6.62,11.72-12.18,2.21-2.64,4.65-4.86,7.21-7.19l8.23-7.48,7.61-6.34c1.95-1.62,3.84-3.17,5.64-5.03l-.27,8c-3.68,2.63-7.09,5.48-10.55,8.46-3.61,2.84-6.67,6.02-10.19,8.91l-5.68,4.67-8.61,7.78-2.3,2.44ZM379.66,29.86l-7.3,5.18c-3.33,2.37-6.53,4.59-9.14,7.8-2.2,2.69-4.62,4.92-7.17,7.28l-7.12,6.6c-1.81,1.68-3.47,3.27-5.44,4.7-.41-2.64-.66-5.11-.72-7.54l3.75-3.21,4.55-3.81c2.79-2.34,5.36-4.71,8.26-6.92,1.6-1.22,2.93-2.59,4.47-3.86l7.4-6.1c1.49-1.23,2.92-2.47,4.24-3.84l3.45-3.6.75,5.38c.07.51.02,1.39.03,1.94ZM531.75,89.75c.23,1.77.2,3.6.58,5.35.66,3.02,1.09,5.91,1.48,8.98l1.51,11.73c.16,1.2.23,2.47.27,3.68l.36,10.18c-1.66-1.01-2.87-2.29-4.19-3.71-2.69-2.9-5.19-5.64-8.04-8.23-1.42-1.29-2.85-2.53-3.94-4.12-2.09-3.06-4.6-5.43-7.18-8.06-2.87-2.93-4.54-6.35-7.99-9.19l5.31-3.05c7.54-4.33,14.01-5.34,21.66-8.76-.35,1.79-.07,3.45.16,5.21ZM535.63,93.04c-.19-3.08.54-6.6-1.34-9.77l6.61-3.59c2.09-1.13,4.06-2.26,6.05-3.52,2.31-1.47,4.65-2.61,7.22-3.53l5.82-2.08c-.54,2.01-.74,3.61-1.43,5.27l-10.19,24.55-4.38,11.82-5.73,16.95-.71-6.84-.94-12.91-.99-16.36ZM446.39,61.72l3.26.14,9.8.48,24.77,1.67,37.13,2.71,25.56,1.61c4.45.28,8.58.43,13.03.26l-7.74,2.19c-1.81.51-3.52,1.29-5.17,2.23-5.04,2.88-10.01,5.53-15.34,8.01-2.67-.77-5.24-.99-8.17-1.02l-12.37-.12-13.36-.06c-6.48-.03-12.76-.75-19.23-1.18l-11.52-.76-13.12-1.05c.67-2.36-.44-4.91-2.79-5.96-1.3-.58-2.77-.73-4.17-.86l-3.62-7.29c.77-.27,2.18-1.04,3.04-1ZM417.14,23.76c1.65,3.24,3.26,6.25,5.16,9.34,4.04,6.57,6.03,11.7,10.51,17.92,2.49,3.45,4.23,7.15,6.29,10.86l5.08,9.15,4.26,7.29-5.23,1.74c-.88-1.69-1.7-3.29-2.4-5.1-2.03-5.26-4.67-10-7.38-14.92l-2.7-4.91-5.75-8.72-11.19-17.2c-2.13-3.28-4.2-6.31-6.62-9.34-1.16-1.46-2.1-2.82-3.39-4.24l3.18-7.39c3.48,3.9,7.87,11.01,10.17,15.53ZM397.14,7.56c.12-.39.21-.98.29-1.47,2.47-2.97,5.04-2.11,8.07-.3.56.65.85,1.45.47,2.17l-3.39,6.35c-3.46-2.01-4.44-.85-7.57.12l2.13-6.87ZM388.67,5.57l1.54-1.46c.7-.66,2.86-.83,3.47-.07.83,1.04,1.36,2.01,2.61,2.54l-2.28,6.76c-1.7-1.57-3.92-2.21-6.19-1.2l.86-6.58ZM384.89,26.61l-.2,1.09c-.05.29-.95.5-1.29.39l-2.08-.64-.88-6.81c1.35.25,2.44-.42,2.89-1.62l.59-1.56,1.75,1.16c.07,2.71-.28,5.26-.78,7.98ZM385.91,14.09c-1.86-1.28-3.92-1.44-5.76.29-.05-2.12-.05-4.21.27-6.28,1.72-1.08,1.07-3.57,2.92-4.41.74-.34,1.62.34,2.16.77l1.69,1.34-1.29,8.29ZM391.25,25.42c-.07.43-.45,1.36-.62,1.92-2.14.67-2.59-1.64-3.77-2.42l.42-5.99c1.45-.37,2.35-1.64,3-3,.84-.36,2.68.81,2.6,1.75-.66,2.64-1.24,5.16-1.63,7.75ZM398.45,26.66c-.78.58-1.91,1.3-2.97,1.34-.8.03-1.31-1.27-1.77-1.81l-.94-1.1c.17-2.15.61-4.24,1.18-6.38,3.43,2.51,3.94-2.55,7.26-1.18-1.14,3.05-2.07,6.02-2.76,9.12ZM417.79,56.54l-4.16-7.35c-2.23-3.94-4.77-7.51-7.4-11.19-.78-1.1-3.79-6.82-4.46-8.29l-1.27-2.8,1.76-6.95c.84,1.64,1.56,3.06,2.45,4.52l5.05,8.22c2.48,4.04,5.29,7.66,8.08,11.5,4.25,5.86,7.73,11.9,11.18,18.24,1.82,3.35,3.67,6.42,5.29,9.86,1.48,3.15,3.22,5.89,5.19,8.91l-6.34.74-5.41-8.49-4.72-8.42c-1.65-2.95-3.57-5.55-5.24-8.5ZM423.88,72.02l1.91,3.01-8.03.56,6.13-3.56ZM400.85,137.87c-1.44-.28-3.1-1.24-4.19-2.34-1.65-1.66-2.18-3.94-2.5-6.18-.34-2.35-.61-4.61-.55-6.95.12-4.63-.31-10.07,2.69-13.63,1.52-1.8,4.38-2.35,6.44-1.2,1.94,1.08,3.34,3.16,3.65,5.26.18,1.21-.57,2.25-1.48,2.53-2.68.83-2.76-3.33-4.72-2.83-1.6,1.16-1.3,10.67-1.19,12.86.08,1.6.55,6.83,2.44,7.28l.28-2.13c.18-1.34,1.19-2.18,2.25-2.31,1.18-.15,2.48.6,2.76,1.94.32,1.49.17,3.17-.32,4.61-.81,2.36-3,3.6-5.57,3.09ZM417.62,263.24c-.75.39-2.07.37-2.43-.47-1.01-2.32-1.73-4.63-2.24-7.08l-1.45-6.94-4.74-21.67c-.2-.92-.6-2.01.42-2.64l5.77,21.53c.92,3.44,1.58,6.77,2.3,10.23.43,2.03.74,3.79,1.46,5.86l4.61-4.04c.89-.78,2.05-1.24,3.26-1.51.12,2.09-5.58,6-6.96,6.72ZM468.5,252.75c-1.35,5.35-2.81,10.47-4.63,15.67l-2.17,6.18-4.48,12.29c-.46,1.25-1.03,2.25-2.08,3.06.15-2.03.69-3.86,1.31-5.78l2.99-9.26,4.53-12.87,3.41-9.54c.07-.21.54-.54.75-.56.21-.02.42.6.37.81ZM474.66,211.06c-.97,3.58-2.01,6.89-3.14,10.41l-2.79,8.75c-1.06,3.33-2.13,6.5-3.12,9.87l-2.67,9.08-1.95,6.38c-.77,2.53-1.89,4.89-2.52,7.47-.78,3.16-1.76,6.08-2.87,9.13l-2.24,6.12-1.52,4.14-1.06,3.26c-.27.83-.94,1.5-1.57,1.75-.75.3-1.87.48-2.49-.32-.47-.61-1.36-1.88-1.48-2.68-.49-3.31-1.1-6.41-1.32-9.76l-1.74-26.21-.47-6.48-9.27,4.27c-3.5,1.61-6.71,3.38-9.91,5.53-.56.38-1.67.53-2.23.28-.49-.22-1.23-.92-1.43-1.57-.85-2.79-1.38-5.46-1.99-8.32l-3.53-16.55-5.02-24.41c-.52-2.54-1.7-4.9-2.05-7.38-.22-1.6,1.96-2.14,2.99-2.47,3.16-1.02,6.03-1.86,9.2-2.65,1.66-.42,3.28-1,4.97-1.32,3.3-.63,6.33-1.64,9.58-2.43l6.77-1.63,15.8-4.49c.72-.2,1.75.1,2.2.5.53.48.79,1.34.66,2.14-.5,3.24-1.5,6.28-1.62,9.59-.2,6.05-.21,11.89-1.35,17.82l-1.11,5.78c2.44-.94,4.61-1.6,7.03-2.38,2.72-.87,5.33-1.71,8.09-2.42,1.15-.29,3.53-1.48,4.8-.2.24.24.44,1.03.34,1.39ZM419.39,126.58l.6,4.54c.26,1.99.91,6.8-2.33,6.8-.8,0-2.21-.72-2.37-1.93l-1.22-9.11c-.11-.8-.62-1.49-1.58-1.77l-.13,10.96c-.02,1.45-1.64,2.32-2.75,2.23-1.27-.1-2.42-1.16-2.43-2.65l-.05-9.04c-.03-5.05-.15-9.92.25-14.93.1-1.26.94-2.09,1.83-2.74,1.34-.98,2.68-1.28,4.27-1.17,2.3.16,3.91,1.23,5.21,3.08,2.44,3.48,1.97,8.05-1.5,10.93,1.24,1.46,1.95,2.98,2.19,4.8ZM453.71,164.32c.92-1.35-.23-4.37,2.71-4.96,1.32-.26,2.84.49,3.16,1.98.46,2.11.02,4.27-1.19,6.13-1.79,2.74-6.11,3.52-8.5,1.07-3.55-3.64-3.36-10.56-3.28-15.47.04-2.69.6-5.36,2.1-7.48,2.14-3.03,6-3.45,8.7-1.03,1.2,1.07,2.14,2.4,1.94,4.1-.13,1.07-.76,2-1.67,2.32-.91.32-2.03,0-2.7-.77l-1.47-1.72c-.71,1.06-1.11,2.08-1.18,3.3-.15,2.52-.45,10.6,1.39,12.52ZM458.33,113.56c-.99.49-2.29.4-3.59.35l-.36,11.1v10.88c.01,1.38-1.28,2.35-2.46,2.44-1.12.09-2.66-.91-2.68-2.33l-.14-10.87.32-11.2-2.55-.41c-1.34-.21-2.22-1.49-2.12-2.69.11-1.31,1.25-2.48,2.71-2.41l3.68.17c3.16.15,8.03-.78,8.62,2.23.21,1.09-.32,2.19-1.42,2.73ZM445.2,117.27l.41,7.38c.2,3.59.43,7.08.33,10.61-.05,1.56-1.18,2.69-2.53,2.78-1.42.1-2.74-1.12-2.8-2.69l-.32-9.23-2.51-.25-.63,3.91-.61,5.67c-.16,1.45-1.25,2.79-2.8,2.63-1.62-.16-2.67-1.8-2.51-3.4.2-2.04.34-3.99.65-5.96.31-2.04.68-3.95.62-6.01l1.13-6.22c.33-1.83,1.15-3.44,2.12-4.99,1.12-1.82,2.87-3.09,5.09-3.17,4.08-.16,4.21,5.99,4.37,8.93ZM445.68,167.17c-.05.86-1.07,1.92-1.86,2.22-1.07.41-2.03.06-2.68-.56-.51-.48-1.01-1.5-1-2.37l.16-10.19c.06-3.92,0-7.69.37-11.55.09-.9,1.1-1.57,1.82-1.7,2.62-.46,2.99,5.07,3.09,6.9.34,5.82.43,11.45.08,17.26ZM431.88,163.81c.09.4,1.19.22,1.38-.13.56-1.04.92-2.08.93-3.25l.07-7.12c.03-2.98-1.73-10.17,2.55-10.11,1.23.02,2.52,1.08,2.54,2.57l.07,6.31c.05,4.55.75,11.67-2.1,15.36-2.03,2.63-6.2,3.17-8.76,1.19-1.17-.9-2.08-2.07-2.39-3.41-.63-2.75-.68-5.44-.57-8.25l.34-8.68c.06-1.48.81-4.65,2.79-4.83.72-.07,1.58.4,2.02,1.06,1.18,1.77.97,3.8.91,5.86l-.17,5.87c-.07,2.58-.23,4.97.38,7.54ZM426.06,112.67l-.04,7.7c1.82-.13,4.91-.16,5.16,2.2.25,2.38-2.71,3.26-5.23,3.11l.02,7.75,2.12-.28c1.39-.18,2.52.75,2.79,1.94.31,1.32-.47,2.62-1.93,3.06-1.72.51-4.02.71-5.72,0-2.23-.94-2.59-3.52-2.58-5.63l.03-5.91.04-14.7c0-1.46.29-3.08,1.81-3.67,3.44-1.32,9.75-.48,9.39,2.56-.27,2.3-4.1,1.83-5.86,1.88ZM420.78,143.82c.85-.92,2.21-.83,3.02.1.88,1,1.26,2.38,1.24,3.76l-.1,7.85c-.04,2.79-.1,5.41-.63,8.15-.65,3.32-3.22,6.1-6.76,6.3-2.4.14-5.05-1.22-6.24-3.41-1.55-2.84-2.3-10.29,1.72-10.18,1.18.03,2.43,1,2.54,2.41.12,1.58-.15,5.89,2,5.13,1.79-.63,1.69-4.85,1.72-6.93l.14-9.32c.02-1.42.4-2.84,1.35-3.85ZM460.27,111.1c.07-1.13,1.24-2.08,2.01-2.22,1.23-.22,2.37.42,2.81,1.65.24.67.32,1.57.33,2.34l.21,11.53-.11,11.97c-.02,1.67-1.52,2.65-2.74,2.59-1.48-.07-2.49-1.24-2.48-2.81l.07-11.52c.03-4.6-.37-9.02-.09-13.54ZM460.37,150.66c.27-2.77,1.68-5.34,4.25-6.43,2.27-.97,8-1.62,8.04,1.86.03,2.77-2.95,2.89-4.79,3-2.47.14-1.93,3.21-2.05,5.18,1.95-.07,4.56.32,4.77,2.38.2,1.94-2.02,3.47-4.65,3.22-.21,1.54-.12,3,.23,4.7l3.56-.2c1.56-.09,2.81.9,3,2.34.49,3.81-5.37,3.5-7.88,3.13-3.8-.57-4.63-4.68-4.67-7.94-.05-3.81-.17-7.48.2-11.24ZM462.02,195.97c.33,0,.76.03.8.19.04.15.14.66.12.83l-1.14,7.82c1.27-.34,4.85-1.89,5.71-1.03.76.76-1.57,1.86-2.54,2.14-2.1.62-4.12,1.83-4.7,1.18-1.02-1.15,1.32-9.3,1.76-11.13ZM474.99,137.14c-.23,1.26-1.36,2.01-2.42,2.07-1.2.07-2.4-.7-2.69-2.02-.77-3.5-1.21-6.95-1.79-10.49l-1.19-7.29-1.12-7.97c-.19-1.37.49-2.58,1.76-2.93,1.11-.31,2.63.23,3.09,1.65.99,3.02,1.16,8.38,1.93,11.58l2.02-8.12.57-2.85c.26-1.3,1.43-1.99,2.57-1.94,4.15.16,1.7,6.57,1.23,8.66l-1.82,8.09-2.14,11.56ZM488.73,121.85c1.16,1.16.61,3.04-.85,3.85-1.15.65-2.46.7-3.96.89l-.42,6.98,5.03-.44c1.43-.13,2.63,1.11,2.8,2.21.2,1.29-.68,2.75-2.14,2.94l-6.59.82c-1.17.15-2.26.61-3.3-.09-.96-.65-1.39-1.78-1.33-3.11l.39-7.81,1.31-10.84.5-3.4c.7-4.74,3.27-4.7,8.51-5.56,1.31-.21,2.61.75,2.86,1.84.76,3.32-3.65,3.7-6,4.14l-.94,6.89c1.63-.28,3.04-.4,4.12.68ZM494.49,95.5c-21.05.13-43.59-2.72-65.38-1.89l-25.13.96c-4.86.19-9.42-.03-14.47-.33.11-.4.46-.88.85-1.15l3.5-2.42,13.37-8.66c2.49-1.61,4.77-3.23,7.35-4.62,3.86.89,7.56,1.26,11.51,1.34-.73,1.9.05,3.94,2.01,4.78,2.48,1.06,5.13,1.18,7.83.74,2.5-.06,4.8-.56,7.1-1.44l7.89-3.02,12.68.44,10.57.19c4.57.08,8.89.08,13.47.39,6.78.45,13.31.63,20.07.64l12.05.5c2.84.12,5.48.34,8.35.65-6.53,2.56-12.1,3.77-18.5,7.34-1.72.96-3.41,1.8-5.16,2.67l-4.94,2.44c-1.44.71-3.36.46-5.01.47ZM562.81,200.4l-.74,40.89-.26,14c-.04,1.98.03,3.91.2,5.86.11,1.28-.49,1.93-1.54,2.53l-14.01,7.98-7.22,4.58-13.75,7.53-6.91,3.65c-2.54,1.34-5.03,2.47-7.41,4.16l-8.36,5.96c-.12.08-.59.24-.62.14-.03-.1-.1-.36-.11-.48-.25-6.32-1.92-13.14-1.97-19.82l-.26-34.01-.16-7.33-.29-5.76-.69-11.52c-.59-9.85.83-19.56.72-29.91l-.2-19.6.67-16.91c.15-3.68.06-7.11.01-10.81l-.29-22.28,1.24-8.4c.48-3.22.74-6.37.86-9.76,3.14,2.05,5.36,4.83,7.94,7.4l6.99,6.97c1.9,1.9,3.8,3.52,5.95,5.13,3.41,2.56,6.27,5.57,9.16,8.67,1.38,1.49,2.93,2.6,4.92,2.99,2.1.41,3.94-.61,4.81-2.62l4.46-10.39,3.95-10.3,6.4-17.14,5.02-14.53.45,21.63.42,20.92v48.32s.3,10.69.3,10.69c.2,7.26.46,14.26.32,21.57Z"/>
          <path class="cls-1" d="M412.57,113.1l-.12,5.71c2-1.1,3.11-3.11,2.2-4.62-.44-.74-.97-1.13-2.08-1.09Z"/>
        </g>
        <path class="cls-1" d="M513.16,183.24c-1.24,1.76-4.8,4.72-6.31,2.94-.34-.4-.29-1.12-.28-1.79.07-3.45-.6-6.76-.82-10.22l-.31-4.92c-.15-2.44,1.8-4.71,3.93-5.31,1.51-.42,2.93.02,3.82,1.38,1.17,1.79,1.32,4.03.44,6.06,1.9.93,2.35,2.84,2.08,4.77-.37,2.6-1.03,4.92-2.56,7.09ZM508.63,172.14c2.43-.77,3.33-3.51,2.3-5.4-1.23-.23-2.78,1.17-2.76,2.48,0,.99.24,2.11.47,2.92ZM509.84,181.98c1.84-2.09,2.97-4.63,2.88-7.53-1.3,0-2.85.73-3.69,1.64l.81,5.9Z"/>
        <path class="cls-1" d="M521.34,188.28c.08-.94.77-1.5,1.47-1.45.51.04,1.26.82,1.27,1.53l.18,13.2c0,.66.3,1.7.81,2,.4.23,1.64-.25,1.74-.71.31-1.41.31-3.14.26-4.67-.11-3.74-.16-7.29-.05-11,.02-.87,1.02-1.47,1.64-1.4.89.1,1.52.86,1.54,1.87l.15,10.79c.03,1.91.13,3.97-.7,5.74-.77,1.64-3.07,2.89-4.84,2.7-2.2-.23-3.52-2.45-3.7-4.55-.41-4.67-.2-9.23.22-14.04Z"/>
        <path class="cls-1" d="M552.71,217.82c-.11.2-.82.37-1,.26-.23-.14-.5-.7-.46-.98l.81-6.06-1.73.89c-.24.12-.95,0-1.12-.19s-.37-.74-.35-1.03l.53-8.56c.11-1.74.77-2.52,2.56-2.77,1.31-.18,3.07-.63,4.38-.37.47.09,1.21,1.1,1.11,1.54-.28,1.34-.73,2.66-1.22,4.14l1.85-.38c.28-.06.98.12,1.15.35s.26.9.09,1.19l-2.58,4.57-4.03,7.41Z"/>
        <path class="cls-1" d="M514.98,153.81c-.06.31-.47.75-.71.78s-.89-.38-.93-.68l-1.33-8.4-.88-5.1c-.05-.26.2-.79.36-.91.19-.16.87-.28,1.1-.14l1.9,1.14.03-3.63c0-.9.82-1.93,1.8-1.78,1.43.23,2.66,1.14,3.84,1.74,1.51.76,2.09,1.64,1.62,3.3l-2.38,8.35c-.1.35-.5.88-.79.97s-1-.12-1.21-.35l-1.18-1.29-1.25,5.99Z"/>
        <path class="cls-1" d="M533.99,176.96c-.83,1.25-2.06,1.92-3.35,1.9-3.05-.06-3.62-3.44-4.12-5.71-.73-3.33-1.25-6.6-1.01-10.03.15-2.07,2.94-5.26,5.96-4.33,1.1.34,1.69,1.44,2.33,2.58,1.05,1.89,1.31,3.88,1.62,6.03.47,3.27.5,6.65-1.44,9.56ZM532.67,170.62l-.37-3.59c-.18-1.71-.53-3.2-1.18-4.78l-.31-.75c-.15-.37-2.34.32-2.28,3.35.03,1.62.57,11.16,2.15,11.17s2.19-3.54,1.99-5.4Z"/>
        <path class="cls-1" d="M518.77,180.89c-2.98-2.62-3.22-10.81-2.43-14.53.44-2.05,2.23-4.74,4.51-4.08.79.23,1.8.88,2.26,1.71,1.94,3.48,2.46,7.43,2.09,11.41-.18,1.89-.43,3.82-1.58,5.33s-3.43,1.4-4.84.16ZM520.25,165.09c-2.33,1.51-1.38,14.09,1.09,13.7,1.9-2.14.97-11.09-1.09-13.7Z"/>
        <path class="cls-1" d="M534.63,198.59c.02,1.92-.05,3.62-.12,5.49-.03.67-.87,1.32-1.4,1.35-.7.04-1.54-.59-1.58-1.4l-.3-7.55c-.13-3.28-.28-6.41-.18-9.68.06-1.83,3.47-4.05,6.03-3.24,2.53.8,2.83,5.98,1.59,8.73-.78,1.73-2.32,2.64-4.06,3.41l.03,2.89ZM536.11,186.46c-.65-.09-1.49.17-2.04.58-.02,1.75.06,3.43.31,5.16,2.24-.7,2.34-4.12,1.73-5.74Z"/>
        <path class="cls-1" d="M544.33,171.46c-.75,3.56-4.69,5.86-6.9,4.33-.57-.39-1.15-1.21-1.17-2.14-.01-.51.61-1.31,1.02-1.32.52-.01,1.15.19,1.76.39.83.28,1.85-.77,2.05-1.66.27-1.17.73-4.76-1.21-4.73-2.42.04-4.12-1.71-4.17-4.07-.03-1.32.19-2.75.69-4,.69-1.73,2.53-2.91,4.37-2.5,1.25.27,2.09,1.43,2.18,2.73.02.32-.33,1.07-.63,1.17-1.14.39-1.53-.71-2.44-.63-.64,1.23-.87,2.59-.67,3.98,2.34-.3,4.3.85,5.09,3.14.54,1.58.39,3.59.03,5.3Z"/>
        <path class="cls-1" d="M548.81,171.58l.25-14.19c-1.55.09-4.01,2.12-4.97.36-1.16-2.13,2.5-2.96,3.91-3.45,2.46-.84,4.73-1.6,7.28-2.3.35-.1,1.19.41,1.28.76.45,1.68-3.38,2.95-4.68,3.57.18,5,.26,10.48-.14,15.45-.05.64-.97,1.22-1.49,1.22s-1.46-.61-1.45-1.43Z"/>
        <path class="cls-1" d="M543.48,197.73c-.01,1-1.15,1.64-1.8,1.55-.86-.12-1.47-.86-1.44-1.83l.39-14.23c.02-.68.52-1.41,1.04-1.52.65-.15,1.45.41,1.55,1.19.26,1.99.41,3.93.38,5.98l-.12,8.86Z"/>
        <path class="cls-1" d="M541.55,200.69c.96-.34,1.76.25,2.08,1s-.21,1.72-.94,2.03c-.79.33-1.7-.09-2.01-.7-.43-.87-.2-1.96.86-2.33Z"/>
        <path class="cls-1" d="M345.46,160.18c-.15-4.67-.48-9.09-1.11-13.72l-1.82-13.27c-.32-2.31-1.09-12.21-3.99-12.09-1.92.08-2.8,3.65-3.04,5.32-.58,4.14-2.47,13.92-3.74,17.66l-5.01,14.79c-1.12,3.31-1.92,6.51-1.77,9.98.15,3.46.77,6.68,2.79,9.59,2.53,3.66,6.66,4.98,10.53,2.24,6.3-4.45,7.41-13.34,7.17-20.5ZM332.63,176.23c-.36.18-1.06-.26-1.11-.59-.07-.42.05-1.15.32-1.37.28-.24,1.16-.16,1.41.13.48.56.15,1.45-.63,1.84ZM332.03,165.78c-.56,3.45.56,5.91-.66,6.19-.33.08-.87-.34-1.22-.74-.34-4.26.37-8.25,1.81-12.3l2.73-7.72c.08-.23.49-.52.67-.55.18-.03.45.5.45.75-.13,5.1-2.77,8.15-3.78,14.36Z"/>
        <path class="cls-1" d="M557.9,228.17c-.65-2.11-2.83-3.81-5.04-3.78-1.43.02-2.64,1.07-3.92,1.42l-9.02,2.46c-2.33.64-4.46,1.37-6.74,2.13-4.5,1.51-8.68,3.3-12.92,5.46-5.03,2.56-8.51,3.26-11.85,7.87-1.29,1.78-2.05,3.64-2.2,5.91l-.24,3.68.28,15.93c.07,3.92-.01,7.7.66,11.5,1.3,7.39,14.33-.48,17.84-2.24l10.44-5.25c4.44-2.23,8.68-4.35,12.92-6.93,13.47-8.21,8.82-12.37,9.94-23.06l.65-6.18c.32-3,.11-5.99-.79-8.92ZM514.69,276.84c-.31.08-.91-.55-.94-.97-.65-7.95-.9-21.16-.41-29.09.03-.43.76-1.03,1.12-.96.35.07.87.69.88,1.17l.25,16.14c.04,2.29.71,13.28-.9,13.72ZM520.08,274.48c-1.75.61-1.1-8.91-1.12-10.38-.07-4.89-.09-9.55.11-14.45l.25-5.87c0-.21.38-.75.53-.68.96.43.82,4.76.82,6.28v10.94s.25,7.3.25,7.3c.06,1.78.76,6.29-.84,6.85ZM528.02,266.84c0,1.44-.02,4.54-1.8,4.76-1.97.24-2.27-2.75-2.22-4.31l.49-16.65c.06-1.93-.57-11.26,1.26-11.75,1.61-.43,1.95,3.52,2.01,4.58.17,3.4.29,6.69.27,10.11l-.03,6.86.03,6.4ZM532.36,268.19c-2.15-.04-2.2-3.66-2.18-5.3l.05-4.42-.07-5.89c-.06-5.09.55-10.01,1.16-15.03.05-.44.69-1.02,1.05-1.05.36-.02,1.04.54,1.09.96.48,3.69.87,7.23,1,10.96l.23,6.62c.1,2.96-.24,5.85-.3,8.79-.02.98.25,4.4-2.03,4.36ZM538.77,263.36c-.15.87-.18,1.61-1.06,2.25-1.27-1.62-.62-3.25-.63-4.93,0-4.41.27-8.57.46-13l.5-11.72c0-.12.11-.46.17-.54.08-.11.32-.22.44-.15.12.07.31.51.31.7l.02,9.02-.21,18.37ZM547.34,253.33c-.25,2.72-.4,5.23-1.02,7.85-.11.45-.87.99-1.26,1.09-.46.11-1.39-.43-1.49-1.16-.65-4.99-.43-9.72-.24-14.63.12-3.1.17-6.02.63-9.05l.61-4.09c.07-.44.87-1.02,1.26-.95.4.07.99.72,1.07,1.26.99,6.57,1.04,13.08.42,19.7ZM552.33,245.72l-.12,6.87c-.03,1.94.25,3.88-.79,5.2-1.48,1.89-1.2-8.18-1-8.61-.18-2.86.03-5.49.12-8.39l.27-8.44c0-.3.46-.81.69-.87.28-.07.77.51.78.89l.14,8.7-.1,4.65Z"/>
      </g>
    </g>
  </g>
</svg>