<?xml version="1.0" encoding="UTF-8"?>
<svg id="Layer_2" data-name="Layer 2" xmlns="http://www.w3.org/2000/svg" viewBox="0 0 200 487.63">
  <defs>
    <style>
      .cls-1 {
        fill: #a2f4e6;
      }
    </style>
  </defs>
  <g id="Layer_1-2" data-name="Layer 1">
    <g>
      <path class="cls-1" d="M25.63,466.46c-2.36-2.49.1-13.52.71-17.32.77-4.83.79-9.79-1.14-14.33-3.32-7.82-10.57-12.32-8.54-23.84,2.76-15.64,12.66-21.9,9.02-39.16-1.17-5.55-3.54-10.47-6.59-15.22-.25-.4-.41-.98-.26-1.28,1.82-3.64,12.52,11.25,12.34,27.43-.15,13.28-6.42,16.86-8.6,29.33s10.82,14.7,10.22,32.01c-.15,4.18-1.75,20.63-7.16,22.38Z"/>
      <path class="cls-1" d="M101.33,471.7c-1.04.21-1.97-1.47-2.13-2.43-2.24-13.4,3.35-20.51.21-29-.74-2-1.88-3.75-3-5.59-6.14-10.1-4.24-16.35-1.21-26.8l4.02-13.87c.8-2.77,1.91-5.42,2.19-8.3.94-9.55-2.66-17.1-6.37-25.72-.16-.37.5-1.3.87-1.25,2.3.29,4.35,5.97,5.42,8.4,4.02,9.13,6.39,18.84,3.54,28.74l-4.57,15.89c-.89,3.1-1.72,6.2-1.9,9.46-.58,10.63,9.93,13.03,7.65,29.45l-2.47,17.7c-.17,1.24-.78,3.02-2.24,3.32Z"/>
      <path class="cls-1" d="M62.98,457.92c.02.43.68,17.12-1.5,12.48-1.85-3.93-2.68-9.21-3.33-13.69-.99-6.82-.6-13.04,1.53-19.53,1.43-4.36,2.62-8.68,3.69-13.14.95-3.93.6-7.85-.96-11.55l-3.24-7.67c-2.03-4.8-2.31-9.58-1.67-14.73.74-5.95,1.56-11.65,4.14-17.15,2.27-4.85,4.96-9.69,7.67-14.2.72-.06,1.61.37,1.73.78s.26,1.42.11,1.85c-3.76,11.05-7.38,15.51-7.56,28.06-.04,2.87-.82,5.77-.19,8.67,2.03,9.38,8.6,14.68,5.48,27.93-1.31,5.55-2.81,10.78-4.59,16.22-1.67,5.11-1.6,10.35-1.3,15.69Z"/>
      <path class="cls-1" d="M162.09,470.3c-.72-2.56-.22-5.09.47-7.6,2.82-10.2,6.22-20.97,1.53-31.27l-3.09-6.8c-1.36-2.99-1.85-6.03-1.15-9.29l3.78-17.68c1.15-5.37,2.15-10.61,2.3-16.13.1-3.65-.61-7.26-1.38-10.77-.93-4.23-4.12-8.71-2.87-9.75,1.47-1.21,4.68,4.7,5.2,5.98,2.98,7.26,3.99,14.94,2.96,22.81-1.17,8.91-2.8,17.4-4.52,26.18-.46,2.34-.4,4.44.54,6.62l3.15,7.33c2.59,6.03,2.96,12.26,2.17,18.73-.69,5.65-2.57,19.53-9.1,21.64Z"/>
      <path class="cls-1" d="M136.11,470.94c-5.02-.18-6.33-11.38-6.29-14.97l.14-12.26c.03-2.96.7-5.66,1.54-8.49,1.46-4.89,2.16-10.11.53-15.03-.75-2.28-1.74-4.42-2.65-6.6-2.48-5.99-3.16-12.06-2.38-18.51s2.03-11.92,4.63-17.57l5.62-12.22c.57-1.23.93-2.33,1.46-3.73,2.4,1.12-.07,7.8-.75,9.89-3.38,10.34-5.62,17.19-6.16,28.26-.27,5.57.91,10.74,3.2,15.72,3.11,6.78,3.84,13.94,1.94,21.14-.6,2.26-.95,4.6-.96,6.94l-.11,19.36c-.02,2.72.44,5.22.25,8.05Z"/>
      <path class="cls-1" d="M104.19,84.98c-6.77,2.54-13.55-1.9-15.49-8.37-1.49-4.97-1.07-9.72.65-14.49,1.29-3.57,3.03-6.33,5.83-8.91,1.77-1.63,3.41-3.21,5.57-4.43,3.88-2.19,7.8-3.97,12.2-4.97,4.28-.97,8.83.96,10.67,5.08,7.05,5.94,3.73,17.72-.85,23.98-3.06,4.19-7.26,7.45-11.85,9.73-2.11,1.05-4.44,1.53-6.73,2.39Z"/>
      <path class="cls-1" d="M193.2,262.22l-8.22-11.25c-6.33-8.67-14.71-19.3-25.16-23.18-5.03-1.87-10.11-3.14-15.39-4.18-2.74-.54-5.52-.29-8.31-.21-3.6.91-6.96,2.14-9.94,4.34l-10.43,7.68-4.36-17.93-6.93-29.76c-2.24-9.6-1.18-19.61-.24-29.24.8-8.11,2.89-15.57,6.65-22.81,1.45-2.79,2.56-5.57,3.65-8.63,5.22,2.38,10.38,4.2,15.92,4.82,3.37.38,6.36-.89,8.84-3.08,5.76-5.12,8.77-16.59,6.58-24.17,6.32,2.42,18.97,3.74,22.97-2.57,1.75-2.6,2.65-5.65,2.31-8.93-1.11-10.48-7.91-19.7-17.22-24.74,6.66-4.05,12.07-7.14,15.8-14.04,2.24-4.14,3.17-8.69,3.06-13.49-.1-4.29-2.72-8.19-6.12-10.72-3.96-2.94-8.57-4.23-13.38-4.87-4.03-.54-8.2-1.2-12.24-.63.74-4.1.26-8.25-1.93-11.84-3.43-5.62-6.5-8.45-12.42-11.49-3.6-1.85-7.54-1.67-10.91.4-5.75,2.24-11.72,8.85-14.5,14.51-3.41-7.96-10.71-13.71-19.43-14.39-3.08-.24-6.68,1.05-8.79,3.14-6.2,6.12-6.24,17.01-6.46,25.31-7.1-2.48-11.46-1.45-17.59,2.52-2.75,1.79-4.53,4.03-6.32,6.73-1.87,2.82-3.33,5.46-3.37,9.04-.02,2.28-.43,4.76,0,7.04,1.53,8.28,7.93,14.78,15.15,19.01-4.2,1.73-6.79,4.88-8.67,8.69-1.82,3.68-2.59,7.39-2.16,11.51.39,3.79,2.23,6.69,5.36,8.79,7.21,4.81,11.92,2.15,20.01,2.02-4.39,5.46-4.21,10.23-4.21,16.99,0,8.87,7.78,13.78,15.71,13.25,4.55-.31,12.51-3.97,15.85-7.33l-2.64,8c-1.26,3.81-1.48,7.72-2.27,11.7-1.72,8.63-2.65,17.13-3.18,25.94l-.43,7.09c-8.49-9.36-20.52-14.34-32.56-15.93-2.37-.31-4.76,0-7.16.16-3.12.21-6.25.51-9.05,1.9-5.21,2.6-9.33,6.49-12.74,11.16-2.44,3.35-4.97,6.56-6.39,10.52-5.95,16.62-7.09,21.58-6.79,39.52.04,2.63.73,5.26,1.58,7.63.84,2.33,3.39,3.55,5.54,2.44,8.81-4.55,8.46-2.6,16.46-9.35l9.35-7.88c3.62-3.05,7.36-5.64,11.49-7.97,4.28-2.42,7.8-6.52,10.83-10.42,1.43-1.75,3.03-3.72,5.17-4.6,4.69-1.95,9.44-2.8,14.63-3.43.35,5.54,2.01,10.4,3.24,15.7,1.84,7.95,3.32,15.72,5.57,23.58,1.51,4.61,2.29,9.11,3.05,13.88l1.72,10.75,1.28,12.95.3,8.8c.14,4.12.61,8.12-.13,12.24-1.11,6.18-2.55,12.16-4.18,18.33-8.57-3.17-24.6-2.32-33.73-1.17-14.41,1.82-23.08,3.01-36.63,8.66-6.41,2.67-12.23,6.11-17.38,10.74-2.37,2.13-4.7,4.48-5.86,7.44C3.45,342.04,0,369.53.02,375.9l.06,18.86-.08,17.21.45,25.45c.15,8.62,1.78,16.77,5.03,24.67,2.98,7.24,7.98,12.97,14.68,16.93,3.63,2.14,7.17,4.11,11.26,5.3,6.8,1.99,13.53,2.78,20.69,2.82l46.56.2c11.94.05,23.49.82,35.41-.31,7.17-.68,13.98-1.59,21.05-2.63,4.49-.66,8.63-2.11,12.45-4.46,3.71-2.28,7.13-4.71,10.43-7.48,5.96-5,7.03-11.06,9.33-17.59,2.73-7.75,3.72-15.52,2.75-23.72-.51-4.26-.74-8.29-1-12.58-.57-9.34-1.44-18.3-2.49-27.58-1.18-10.38-1.4-20.48-1.43-30.94l-.06-19.88c0-3.05-3.67-7.46-6.27-9.4-3.97-2.97-8.2-5.17-12.84-7.07-16.93-6.94-33.83-8.95-52.25-11.05,3.15-13.32,4.62-26.62,4.64-40.21l.02-17.43c4.27.47,8.18,1.48,12.16,2.84,3.1,1.06,5.77,2.86,8.56,4.61,3.4,2.15,6.44,4.71,10.16,6.37,8.65,3.85,13.79,4.16,23.14,4.48,4.13.14,8.16-.41,12.24.21l8.61,1.3c1.7.26,5.63.76,6.5-.83,1.47-2.7-4.8-9.31-6.58-11.75ZM64.29,184.54c-7-.1-13.76,1.69-19.31,6.08-6.75,5.34-11.28,14.09-14.02,22.37-.89,2.7-2.15,5.04-4.32,6.64-.38.28-1.41-.08-1.63-.47s-.69-1.55-.6-2c1.31-6.57,3.46-12.73,6.86-18.44.74-1.25,1.61-2.34,2.43-3.55,2.37-3.54,4.98-6.91,8.4-9.5,3.01-2.28,6.65-2.89,10.22-3.75,3.19-.77,6.09-.77,9.37-.61l11.66.57c.45.02,1.24.62,1.28,1.01.23,1.89-8.52,1.68-10.33,1.65ZM99.77,116.1c-2.92,3.34-5.67,6.78-8.86,9.93-2.22,2.19-4.96,3.74-7.78,5.01-3.33,1.51-7.39,1.25-10.18-1.42-1.21-1.16-1.75-3.28-1.79-4.86l-.29-10.78c-.19-7.25,3.08-9.45,2.36-11.3-.17-.44-1.02-.99-1.59-1.13-4.98-1.19-6.15,2.03-13.73.87-3.06-.47-6.63-2.2-7.44-5.49-.92-3.75.73-7.45,2.3-10.7,3.47-7.18,4.39-5.97,9.04-11.91.5-.63.62-1.97.37-2.68-.88-2.54-4.07-.02-8.09-3.35-2.78-2.32-4.93-5-6.6-8.2-3-5.76-1.68-11.72,1.48-17.03,1.2-2.01,2.25-3.66,4.15-5.08,3.81-2.84,8.53-3.87,13.16-2.25l4.09,1.44c.41.14,1.37.02,1.73-.16.42-.21.84-1.15.85-1.69l.17-7.41c.09-4.05.29-7.99.98-12.01.66-3.83,3.51-9.58,8.02-9.03,8.21,1,15.04,8.3,18.38,15.29.28.59,1.11,1.31,1.65,1.33,3.64.15,7-9.15,13.25-13.77,1.49-1.1,3.12-1.92,4.78-2.86,1.35-.77,3.35-.82,4.8-.11,1.82.89,3.91,1.75,5.38,3.12,3.81,3.56,5.46,8.71,5.67,13.81l.25,6.34c.02.63.39,1.73.81,2.06.42.33,1.62.67,2.16.55,4.53-1.02,8.66-1.14,13.31-.83,4.35.29,9.2.99,12.57,4.16,3.32,3.12,2.49,10.82.8,15.04-2.45,6.09-10.68,12.73-16.36,15.15-.33.14-.92.86-.88,1.15s.24.69.49,1.07c2.27,3.42,4.74,6.38,7.69,9.26,4.37,4.27,7.31,9.62,7.75,15.86.14,2.08-.73,5.02-2.65,5.98-2.75,1.37-5.98,1.99-9.03,2.11-7.57.3-11.36-5.08-14.17-3.95-3.99,1.61.77,9.8.73,15.04-.03,3.81-1.8,7.45-4.02,10.26-1.61,2.04-3.64,2.53-6.04,2.53-4.5-.02-8.57-.78-12.68-2.52-4.11-1.74-8.08-3.65-11.3-6.82-1.62-1.6-4.05-1.91-5.71,0ZM10.68,339.88c1.85-6.06,13.65-13.07,19.4-15.66,9.2-4.14,18.71-6.59,28.73-7.92,7.3-.97,14.31-2.16,21.72-2.12,5.83.03,11.34.98,17.02,1.55l-1.71,6.38-7.71-.9-24.8-.04-22.32,3.01c-4.91.66-8.71,2.34-12.7,4.71-5.79,3.45-11.21,7.4-15.51,12.65-.75.18-2.39-.78-2.12-1.66ZM181.13,345.92l-.36,32.87c-.05,4.68.52,8.99.89,13.68l2.39,30.08,1.09,14.54c.44,5.9-1.32,11.44-2.99,17.01-1.69,5.63-2.97,10.89-7.68,14.78-5.87,4.85-12.31,9.24-20.02,10.29-18.13,2.47-27.61,3.16-46.01,2.64l-23.42-.66-32.91-.07c-13.92-.03-24.38-2.69-34.92-11.71-7.49-6.41-11.15-19.66-11.77-29.23-.49-7.61-.45-14.9-.32-22.56l.41-23.15c.11-6.44-.91-12.69-.05-19.05l2.63-19.51,1.43-9.08c6.92,2.71,16.41,3.24,24.02,3.56l41.72,1.76,59.46,1.71c10.06.29,38.89-.91,46.42-7.91ZM168.97,331.16c2.3,1.06,12.78,6.33,9.47,9.82-7.69-6.15-21.48-10.17-30.92-11.91l-11.46-2.12c-4.43-.82-8.72-1.61-13.21-2.09l-11.87-1.28,1.63-5.93c18.11,2.53,39.93,5.93,56.37,13.51ZM168.38,259.46l-6.86-3.57c-4.65-2.42-18.99-11.16-23.45-11.5-3.92-.3-7.72-.01-11.58.32-1.25.11-2.3.04-2.71-1.33-1.21-4.07,7.75-2.9,9.61-2.93,4.26-.08,7.98.69,11.79,2.57,4.99,2.46,9.7,5.16,14.59,7.89,3.43,1.91,6.5,3.92,9.56,6.34,1.39,1.1,2.76,1.89,3.65,3.76-1.72-.42-3.19-.8-4.61-1.54Z"/>
    </g>
  </g>
</svg>