<?xml version="1.0" encoding="UTF-8"?>
<svg id="Layer_2" data-name="Layer 2" xmlns="http://www.w3.org/2000/svg" viewBox="0 0 496.06 208.46">
  <defs>
    <style>
      .cls-1 {
        fill: #007a4e;
      }
    </style>
  </defs>
  <g id="Layer_1-2" data-name="Layer 1">
    <g>
      <g>
        <path class="cls-1" d="M7.49,96.62V30.33c3.99,2.37,8.99,3.62,14.36,3.62s10.48-1.37,14.36-3.62v61.04c0,18.85-8.49,27.21-27.59,27.21H0c5.87-4.49,7.49-9.24,7.49-21.97Z"/>
        <path class="cls-1" d="M7.24,13.86C7.24,6.24,12.61,0,21.85,0s14.73,6.24,14.73,13.86-5.49,13.86-14.73,13.86-14.61-6.12-14.61-13.86Z"/>
        <path class="cls-1" d="M41.2,82.14c0-9.86,5.74-19.6,30.21-23.22l6.24-.87c-1.87-3.5-6.37-5.24-12.23-5.24-8.24,0-14.36,3.62-17.98,8.86v-30.46c4.99-1.5,12.48-2.5,20.34-2.5,25.47,0,38.57,10.36,38.57,31.46v40.57c-5.62-2.75-9.86-4.37-14.85-4.37-9.11,0-14.98,5.99-27.34,5.99-14.6,0-22.97-8.24-22.97-20.22ZM78.89,76.89v-5.74l-2.75.5c-6.61,1.25-9.24,3.75-9.24,7.36s2.37,5.37,5.62,5.37,6.37-1.87,6.37-7.49Z"/>
        <path class="cls-1" d="M234.2,13.86c0-7.61,5.37-13.86,14.6-13.86s14.73,6.24,14.73,13.86-5.49,13.86-14.73,13.86-14.6-6.12-14.6-13.86Z"/>
        <path class="cls-1" d="M248.81,33.95c5.24,0,10.48-1.25,14.36-3.62v69.53h-28.71V30.33c3.99,2.37,9.11,3.62,14.36,3.62Z"/>
        <path class="cls-1" d="M270.66,12.48h28.71v87.38c-2.38-1.28-7.51-3.63-14.42-3.62-6.84.01-11.92,2.34-14.29,3.62V12.48Z"/>
        <path class="cls-1" d="M304.36,82.14c0-9.86,5.74-19.6,30.21-23.22l6.24-.87c-1.87-3.5-6.37-5.24-12.23-5.24-8.24,0-14.36,3.62-17.98,8.86v-30.46c4.99-1.5,12.48-2.5,20.34-2.5,25.47,0,38.57,10.36,38.57,31.46v40.57c-5.62-2.75-9.86-4.37-14.85-4.37-9.11,0-14.98,5.99-27.34,5.99-14.6,0-22.97-8.24-22.97-20.22ZM342.06,76.89v-5.74l-2.75.5c-6.61,1.25-9.24,3.75-9.24,7.36s2.37,5.37,5.62,5.37,6.37-1.87,6.37-7.49Z"/>
        <path class="cls-1" d="M49.69,188.24c0-9.86,5.74-19.6,30.21-23.22l6.24-.87c-1.87-3.5-6.37-5.24-12.23-5.24-8.24,0-14.36,3.62-17.98,8.86v-30.46c4.99-1.5,12.48-2.5,20.35-2.5,25.47,0,38.57,10.36,38.57,31.46v40.57c-5.62-2.75-9.86-4.37-14.86-4.37-9.11,0-14.98,5.99-27.34,5.99-14.61,0-22.97-8.24-22.97-20.22ZM87.39,183v-5.74l-2.75.5c-6.62,1.25-9.24,3.75-9.24,7.36s2.37,5.37,5.62,5.37,6.37-1.87,6.37-7.49Z"/>
        <path class="cls-1" d="M151.06,170.26v35.7h-28.71v-87.38h28.71v43.31l12.73-24.59h30.08l-15.6,25.47,17.48,43.19h-32.08l-12.61-35.7Z"/>
        <path class="cls-1" d="M282.26,162.28h-9.36v-24.97c14.73,0,28.09-5.49,38.07-18.72v18.72h12.48v24.97h-12.48v43.69h-28.71v-43.69Z"/>
        <path class="cls-1" d="M322.22,188.24c0-9.86,5.74-19.6,30.21-23.22l6.24-.87c-1.87-3.5-6.37-5.24-12.23-5.24-8.24,0-14.36,3.62-17.98,8.86v-30.46c4.99-1.5,12.48-2.5,20.34-2.5,25.47,0,38.57,10.36,38.57,31.46v40.57c-5.62-2.75-9.86-4.37-14.85-4.37-9.11,0-14.98,5.99-27.34,5.99-14.6,0-22.97-8.24-22.97-20.22ZM359.91,183v-5.74l-2.75.5c-6.61,1.25-9.24,3.75-9.24,7.36s2.37,5.37,5.62,5.37,6.37-1.87,6.37-7.49Z"/>
        <path class="cls-1" d="M408.98,140.81c8.61,0,13.48-5.37,23.22-5.37,2.25,0,4.37.25,6.49.75v31.46c-3.12-3.99-6.61-7.49-10.61-7.49-3.5,0-4.49,2.5-4.49,7.74v38.07h-28.71v-69.53c5.62,3.25,9.86,4.37,14.1,4.37Z"/>
        <path class="cls-1" d="M242.69,134.81c-6.24,0-11.61,1.25-15.73,3.87,0-12.94,0-25.88-.01-38.82v-43.07c0-18.35-10.48-28.09-28.34-28.09-10.74,0-17.98,3.37-24.97,9.11-3.62-6.37-9.74-9.11-18.22-9.11-12.61,0-17.23,5.99-27.21,5.99-4.37,0-8.74-1.12-14.36-4.37v69.53h28.71v-38.07c0-5.74,2.87-7.99,6.74-7.99s6.74,2.25,6.74,7.99v38.07h28.71v-38.07c0-5.74,2.87-7.99,6.74-7.99s6.74,2.25,6.74,7.99v47.01h0c0,32.39,0,64.78,0,97.16,2.38-1.28,7.51-3.64,14.42-3.62,6.83.02,11.91,2.34,14.29,3.62v-38.07c0-5.74,2.87-7.99,6.74-7.99s6.74,2.25,6.74,7.99v38.07h28.71v-43.07c0-18.35-8.99-28.09-26.46-28.09Z"/>
        <path class="cls-1" d="M401.37,93.62h11.36c4.12,0,5.24-2.25,3.74-7.49l-15.73-54.92h29.33l9.74,44.06,6.99-44.06h30.46l-15.6,53.67c-7.24,24.72-20.47,33.7-52.68,33.7h-7.61c1.07-2.39,2.67-6.78,2.67-12.48s-1.6-10.09-2.67-12.48Z"/>
      </g>
      <path class="cls-1" d="M489.75,98.74c.03-.13.04-.28.05-.43.01-.73-.22-1.42-.4-2.12-.05-.2-.16-.57.07-.72.19-.13.54.08.72.14.38.13.77.24,1.16.31.77.15,1.56.14,2.31-.14,1.57-.58,2.26-2.08,1.54-3.63-.29-.62-.72-1.21-1.21-1.76-.47-.53-1-1.01-1.54-1.47-.25-.21-1.25-.77-1.22-1.1.05-.49,1.17-.83,1.51-1.06.62-.41,1.22-.88,1.74-1.41.09-.1.18-.19.27-.29,2.66-3,1.1-6.1-2.83-5.86-.58.03-1.15.12-1.72.24-.27.06-1.25.48-1.47.35-.44-.24.09-1.41.14-1.76.09-.67.13-1.35.04-2.02-.19-1.38-1.03-2.41-2.38-2.83-1.57-.48-2.5-.37-3.62.84-.41.45-.78.93-1.12,1.44-.17.26-.34.53-.5.8-.1.17-.26.65-.42.75-.57.36-1.13-1.13-1.35-1.43-.45-.63-.96-1.2-1.56-1.69-.75-.61-1.98-.63-2.86-.32-1.17.4-1.48,1.32-1.67,2.47-.14.81-.18,1.64-.16,2.47.01.4.13.8.09,1.2-.02.17-.06.45-.24.54-.2.1-.39-.08-.57-.15-1.12-.41-2.5-.31-3.58.16-1.15.5-2.08,1.52-2.39,2.73-.35,1.37.18,2.63,1.19,3.57.51.48,1.1.86,1.7,1.21.43.24,1.02.35,1.36.72.48.53-.69,1.18-1.04,1.5-.33.3-.67.59-.97.93-2.24,2.48-.43,4.91,2.58,4.95.45,0,.89-.14,1.34-.09.79.09.45.6.31,1.17-.46,1.84-.36,4.21.65,5.15.6.56,1.55,1.22,2.4,1.1,1.27-.19,2.32-1.04,3.15-1.98.49-.56.92-1.17,1.32-1.81.21-.33.4-.67.59-1.01.08-.14.22-.49.42-.49.25,0,.3.5.38.68.33.73.71,1.45,1.25,2.04,2.09,2.29,5.89,1.07,6.56-1.89ZM478,90.36c-1.98-1.99-.41-4.7,1.38-6.3.58-.52,1.18-.92,1.69-1.15,1.07-.48,2.47-.17,3.44.4,4.62,2.73-1.79,11.82-6.52,7.05Z"/>
    </g>
  </g>
</svg>