<?xml version="1.0" encoding="UTF-8"?>
<svg id="Layer_2" data-name="Layer 2" xmlns="http://www.w3.org/2000/svg" xmlns:xlink="http://www.w3.org/1999/xlink" viewBox="0 0 747.79 494.26">
  <defs>
    <style>
      .cls-1, .cls-2 {
        fill: none;
      }

      .cls-2 {
        clip-path: url(#clippath);
      }

      .cls-3 {
        clip-path: url(#clippath-1);
      }

      .cls-4 {
        fill: #b5182f;
      }
    </style>
    <clipPath id="clippath">
      <rect class="cls-1" x="98.73" y="4.65" width="557.64" height="418.23" rx="22.68" ry="22.68"/>
    </clipPath>
    <clipPath id="clippath-1">
      <rect class="cls-2" x="98.73" y="4.65" width="557.64" height="418.23" rx="22.68" ry="22.68"/>
    </clipPath>
  </defs>
  <g id="Layer_1-2" data-name="Layer 1">
    <g>
      <g>
        <path class="cls-4" d="M237.42,330.34c-.18,2.12-1.47,12.27-4.63,11.77-.79-7.73,4.36-13.37-1.33-21.19-4.76-6.54-2.31-12.78,1.2-19.51,2.84-5.43,2.88-11.27.69-17-.65-1.69-2.57-3.33-1.68-5.33,5.69,6.03,7.36,15.36,4.34,22.78-2.57,6.3-6.32,10.89-1.79,17.3,2.32,3.27,3.54,7.01,3.2,11.16Z"/>
        <path class="cls-4" d="M276.42,344.83c-.08.48-.65,1.39-.9,1.66-.32.33-1.37-.65-1.43-1.13-1.17-9.73,3.46-12.83-.91-19.58-2.47-3.82-2.71-8.18-1.32-12.48l3.62-11.2c1.18-3.67,1.86-7.36.59-11.24l-2.67-8.18c2.06.67,2.38,2.4,3.06,4.06,4.94,12.08,2.22,15.81-1.47,27.69-2.96,9.52,4.84,9.99,3.18,19.93l-1.75,10.47Z"/>
        <path class="cls-4" d="M255.92,326.55c-3.6,9.87-.54,9.88-2.58,18.82-2.02-4.65-2.71-10.2-1.69-15.34.7-3.53,2.03-6.89,3.04-10.32,2.01-6.88-2.98-10.53-2.86-16.31.18-8.96,2.75-14.06,7.49-21.31,1.09,1.19.55,2.69-.05,3.86-2.3,4.51-3.56,8.98-4,13.96-1.07,12.21,6.92,9.45.64,26.64Z"/>
        <path class="cls-4" d="M314.67,333.06c-.43,3.41-1.56,11.91-5.42,13.66-.26-1.39-.22-2.6.12-3.85l2.12-7.76c1.15-4.24.33-8.63-1.61-12.49-1.4-2.8-1.58-5.39-.87-8.41l2.92-12.29c1.37-5.76.59-11.19-1.67-16.67,2.25.29,2.56,2.1,3.12,3.53,1.86,4.74,1.92,9.78.89,14.75l-2.46,11.91c-1.29,6.23,3.97,8.68,2.86,17.63Z"/>
        <path class="cls-4" d="M294.49,346.21c-.03.52-3.59.94-3.08-11.64.13-3.19.49-6.29,1.49-9.31,2.71-8.15-3.6-10.89-2.32-20.74.48-3.67,1.26-7.25,2.89-10.53l4.37-8.81c.49,1.82.02,3.22-.55,4.77-2.79,8.04-6.16,17.44-2.41,25.58,2.05,4.44,1.33,8.58.45,13.14-1.1,5.71-.53,11.42-.85,17.53Z"/>
      </g>
      <g>
        <path class="cls-4" d="M305.94,136.41c-1.86,3.34-10.29,10.95-13.67,9.25-.47-.24-.91-1.33-.83-1.88.81-6.25,8.5-9.41,14.5-7.36Z"/>
        <path class="cls-4" d="M306.65,123.75c-2.81.61-7.06-1.38-6.6-3.68.62-3.05,12.21-3.27,13.87,2.12l-7.27,1.57Z"/>
        <path class="cls-4" d="M288.93,168.12c-.97,2.12-3.35,4.73-5.51,3.44-.83-.5-1.3-2.09-1.05-3.35.82-4.12,6.34-8.23,8.84-7.68.32.07.59,1.3.44,1.63l-2.72,5.96Z"/>
        <path class="cls-4" d="M316.4,153.01c-1.11,2.89-3.53,10.87-7.32,9.71-1.49-.46-2.1-2.28-1.82-3.89.94-5.31,7.44-8.77,8.78-7.77.39.29.56,1.45.36,1.95Z"/>
        <path class="cls-4" d="M274.09,147.11c-.84,1.03-2.65.23-3.28-.47-.77-.85-.93-2.42-.49-3.61,1.71-4.69,8.59-6.79,9.78-5.25.34.44.21,1.71-.2,2.22l-5.8,7.11Z"/>
        <path class="cls-4" d="M595.62,36.71c-4.65-6.82-11.52-10.85-19.29-12.92-5.46-1.46-10.45-1.37-15.68.88-4.87,2.1-9.19,4.65-12.77,8.8-4.51,5.24-8.81,10.71-12.02,16.93-2.8,5.42-3.39,11.25-4.66,17.45l-5.21-6.86c-2.28-3.01-6.63-3.7-10.3-4.42-8.95-1.76-17.86-1.12-26.87.34l-13.07,2.11c-9.18,1.48-17.74,4.97-26.22,8.7-15.97,7.01-28.76,12.39-40.93,25.44-2.77,2.97-4.15,6.49-4.07,10.49-1.55,15.46,1.9,27.53,2.64,42.87l-17.63-6.16c-2.99-1.04-5.79-2.22-8.92-3.03-6.18-.9-11.7-2.98-17.23-5.81-7.61-3.9-10.16-2.22-12.33-8.46-.69-1.99-1.78-4.86-3.96-5.48-5.65-1.61-11.83-3.38-15.63,1.15-5.05,6.02-6.57,16.21-5.74,23.95l1.1,10.19c.37,3.47,2.54,7.2,6.01,8.32,3.29,1.07,12.18,3.2,14.71-.15l5.39-7.13c.52-.69,1.74-.73,2.43-.26,3.35,2.32,6.29,4.73,9.75,6.8l24.51,14.63,14.46,8.25c4.17,2.38,7.87,4.92,12.4,6.64l2.13,11.72c1.31,7.2,3.83,13.84,7.68,20.03,2.92,4.7,7.15,8.47,12.22,10.63,11.54,4.92,29.87,1.17,41.34-3.03l25.33-9.27c6.16-2.26,11.72-4.88,17.58-7.84l34.52-17.43c5.36-2.71,10.29-5.51,15.18-8.96,6.4-4.52,11.46-12.75,11.89-20.89,3.79-6.4,6.78-13.14,8.56-20.44l3.69-15.11,3.51-18c1.74-8.91,3.79-17.46,4.65-26.52,1.55-16.34.21-34.37-9.17-48.13ZM408.15,100.75c.85-2.39,2.22-4.36,3.98-6.21,6.46-6.8,13.82-12.19,22.2-16.46,8.03-4.09,15.94-7.8,24.27-11.2,5.44-2.22,10.74-3.51,16.5-4.44,12.3-1.99,38.06-6.93,48.55-.42,5.45,3.38-3.68,10.61-6.82,12.54-7.26,4.46-14.78,7.87-22.91,10.83-18.36,6.68-36.8,12.14-55.83,16.44-3.54.8-32.9,7.26-29.94-1.09ZM341.46,136.15c.07.55-.38,1.74-.86,1.99-.48.25-1.57-.15-2.24-.78-.32-.31-.59-1.21-.41-1.5.23-.37,1.22-1.03,1.66-1.02.72.02,1.78.77,1.85,1.31ZM336.63,125.7c.68-.3,2.05.52,2.22,1.13.19.67-.35,1.98-1.06,2.22-.6.21-1.7-.18-2.07-.7-.51-.72-.27-2.12.91-2.65ZM332.64,132.01c.67-.36,2.16.16,2.46.74.42.8.03,2.24-.78,2.6-.62.28-1.87.05-2.33-.4-.77-.75-.74-2.18.66-2.94ZM332.61,142.39c-.37-.47-.12-2.08.46-2.28.61-.21,1.75-.12,2.01.3.34.55.28,1.87-.22,2.19-.53.34-1.88.25-2.25-.21ZM335.31,154.42c-.8.11-1.94-.62-2.22-1.37-.34-.89.29-2.35,1.7-2.62.74-.14,2.09.89,2.19,1.58.13.96-.76,2.29-1.66,2.42ZM337.21,146.21c-.41-.45.07-1.68.79-2.15.44-.29,1.84.18,2.07.64.27.55-.16,1.81-.82,2.26-.5.34-1.47-.14-2.04-.76ZM418.9,175.03c-.18,4.04-.3,7.78-1.38,12.11-2.8-1.14-5.41-1.95-7.92-3.34l-14.24-7.91c-3.94-2.19-7.26-4.82-11.11-7.16l-19.08-11.63-9.51-6.06c-2.14-1.37-4.31.19-5.53,1.86l-2.63,3.6c-1.94,2.66-4.58,3.19-8.17,2.58,6.23-7.88,7.69-31.12,2.71-39.55,6.41.42,6.23,9.03,11.62,11.11l13.49,5.2,12.25,4.32c3.66,1.29,7.22,2.4,10.77,3.92,4.09,1.76,8.12,3.18,12.35,4.56l11.08,3.6c1.36,2.72,2.16,6.01,3.24,8.99,1.67,4.59,2.29,8.86,2.06,13.8ZM424,131.6c1.96-1.8,4.36-2.43,6.92-2.83l27.31-4.21c20.67-3.19,52.1-16.17,69.48-28.29,2-1.39,5.27-3.22,7.22-4.29.2-.11,1.02.89.87,1.08-.16.2-.53.9-.78,1.06l-6.37,4.2c-19.56,12.88-46.76,25.71-69.84,29.29l-24.41,3.79c-3.55.55-6.71.78-10.4.19ZM428.7,161.08c3.18-.27,7.07-.63,10.27-1.26,7.16-1.42,13.87-2.59,20.91-4.46,15.16-4.01,29.66-8.81,44.18-14.81,10.42-4.31,19.94-9.66,29.01-16.3l11.1-8.12c1.19-.87,2.49-1.38,4.09-1.29-.74,1.29-1.55,2.53-2.6,3.31l-7.97,5.97c-11.05,8.27-22.66,15.08-35.59,20.04-13.66,5.25-27.16,9.57-41.33,13.21-8.49,2.18-16.71,3.61-25.34,4.95-9.49,1.47-8.21-1.12-6.73-1.25ZM561.36,143.31l-8.29,6.23c-6.03,4.53-11.92,8.4-18.78,11.55l-25.89,11.89c-23.05,10.58-34.12,13.84-59.3,18.59-5.44,1.03-10.28,1.64-15.88,1.54-1.45-1.97,11.38-3.88,12.86-4.18l18.74-3.74c9.72-1.94,18.88-4.56,27.99-8.52l32.49-14.12c19.68-8.55,17.95-7.85,35.31-20.17.13-.09.61-.57.64-.56.02,0,.38.26.48.36.16.15-.15.98-.37,1.14ZM579.24,144.11c-3.33-5.98-6.51-11.29-9.91-17.03l-16.59-28.03-13.02-18.69,2.05-7.51c3.62-13.31,18.22-31.61,33.28-31.26,3.92.09,6.78,2.84,8.71,6.12,2.62,4.45,4.5,9,4.92,14.24l1.15,14.34c.8,10.04.46,19.73-2.03,29.5l-3.07,12.05-4.05,20.18-1.42,6.09ZM598.99,95.61l-2.84,13.69-4.14,19.71-2.97,12.14c-1.39,5.66-2.44,11.11-4.47,17.08-1.1-3.77-2.11-7.13-3.91-10.9,3.69-9.22,5.67-18.79,7.72-28.64,1.84-8.83,4.71-17.03,4.9-26.48.22-11.34-.49-22.05-1.64-32.99-.55-5.26-3.08-9.65-5.66-14.07-2.57-4.4-6.97-7.54-12.14-7.44-7.22.13-13.35,3.39-18.85,7.7-3.94,3.08-6.95,6.36-9.67,10.58-4.2,6.51-6.93,13.31-7.72,21.17l-4.22-6.31c1.92-10.9,6.28-19.37,12.8-28.02,2.58-3.43,5.11-6.62,8.34-9.42,2.49-2.15,5.63-3.41,8.58-4.69,3.98-1.73,7.76-1.55,11.86-.67,8.65,1.84,15.53,7.04,19.64,14.99,3.12,6.06,5.02,12.27,5.87,19.17,1.38,11.21.83,22.34-1.46,33.4Z"/>
        <path class="cls-4" d="M478.27,87.69c-5.69,1.94-6.73-1.56-14.38-5.81l-11.1-6.16c-.54-.3-1.19-1.35-1.15-1.85.21-2.62,4.7-3.42,6.91-4.19,14.1-4.92,28.54-7.23,43.41-7.22,4.09,0,8.04-.37,11.39,2.41.89.74,1.93,2.17,2.03,3.21.66,7.03-30.84,17.47-37.11,19.61Z"/>
      </g>
      <g class="cls-3">
        <path class="cls-4" d="M661.45,421.74l6.23-.71c6.84-.78,13.46-.43,20.34-.1l13.74.65c5.56.26,10.92-.23,16.49-.28l20.47-.21c1.84,1.63,8.91,4.95,9.07,1.87.03-.61-.58-1.79-1.12-2.18l-8.3-6.08c-4.98-3.65-9.62-7.36-14.37-11.4-8.98-7.64-17.9-14.39-27.86-21.43l10.96.02c1.62,0,3.25-.25,4.8-.9.67-.28.87-2.47.24-2.85-1.26-.77-2.83-1.14-4.31-1.12l-18.02.24c-8.7-5.03-16.45-10.89-24.73-16.56l-15.88-10.87-8.84-6.52c-.19-.14-.72-.64-.87-.77-.12-.1.44-.3.64-.31l.96-.02.92-.02,30.5-.37h.91s.88,0,.88,0c2.36,0,16.19.26,16.41-3.48l.05-.9c-2.96-1.67-5.99.18-9.25.18l-48.54-.02-29.45-23.57c-.2-.45-.1-.71.25-.73l17.86-.91c7.27-.37,18.77-1.97,24.58-1.46,1.26.11,5.66.92,6.78-1.49.21-.46-.44-1.81-.87-2.05-5.38-3.08-15.01-1.71-21.21-1.16-2.96.26-5.91.46-8.87.6l-18.15.84-37.44.29-45.75.27c-6.82.04-13.2.35-19.95.75l-15.97.96-44.18.71-13.37.84c-8.35.52-16.36.73-24.77.61-9.6-.14-18.77.37-28.31.81l-12.87.59-23.42.75-13.03.06-1.36-16.32.25-24.74c.05-4.6-8.99-8.63-12.26-10.18-9.08-4.32-20.85-7.41-30.94-7.9-.96-6.15,1.73-22.09,1.41-25.71l-.93-10.2c-.41-4.48-.61-8.95.64-13.4.88-.97,3.14-.34,4.24.32l10.56,6.39c7.74,4.68,16.3-2.82,19.61-10.35,1.27-2.88,4.46-7.61,1.08-10.95-2.89-2.86-9.29,1.52-14.7-2.04-1.53-1.01-2.97-2.7-4.27-3.99-5.68-5.63-14.04-5.34-19.62.13-2.62,2.57-4.94,5.17-5.75,8.97-4.27-3.8-8.65-6.69-14.05-7.95l-12.34-2.88c-10.09-2.36-8.58,1.48-21.43-6.32-2.98-1.81-9.73-5.26-11.68-1.04-.54,1.16-.16,2.61.32,3.94l4.49,12.42c1.79,4.96,3.35,9.47,6.57,13.73,3.4,4.5,6.49,9.78,13.98,9.69l13.31-.15c8.59-.1,17.06-6.46,17.49-4.57,3.23,14.48-1,28.9-.03,43.38-11.05-.63-25.9,1.02-35.75,5.92-2.07,1.03-4.18,2.47-6.02,3.73-3.59,2.45-4.38,6.35-5.13,10.38-1.37,7.4-2.31,14.48-2.5,22.02l-.45,18.37-77.54,1.02c-4.99.07-9.54.71-14.5.81l-10.75.22-18.27,1.01c.46,1.31,1.73,1.83,2.95,1.93l10.11.78c-9.44,9.05-19.31,17.43-29.4,25.7l-22.75,2.15c-.81.08-1.83,1.43-1.58,2.06,1.15,2.93,13.93,1.04,17.29,1.07.23,0,.29.21.19.53-8.21,6.67-15.42,13.77-23.13,21.02l-26.85,25.25c-4.07,3.82-8.18,7.17-11.91,11.3-3.17,3.52-5.96,7.16-8.82,11.08,2.84-.8,4.02-2.97,5.78-4.7,3.71-3.65,7.09-7.44,11.26-10.56,5.61-4.2,10.81-8.21,16.23-12.78,2.11-.28,4.6-.4,6.86-.46l18.49.17,23.09.59c-6.75,7.25-12.54,14.69-18.91,21.97l-10.82,12.37c-9.14,1.97-39.64-2.7-44.93,5.65,2.08.74,4,1.43,6.03,1.42,3.24,0,6.12.14,9.33.32,7.89.44,15.45-.01,23.6-.42-5.02,5.8-9.45,11.63-14.83,16.84-4.87,4.72-9.53,9.15-13.64,14.54l-7.06,8.76c-2.97.49-14.76-.62-15.13,2.19-.07.53.97,1.62,1.51,1.65l10.86.6-.31,2.94,2.76-3c6,.48,11.91.89,18,1l16.8.31,13.29-.5c5.55-.21,10.71-.96,16.26-.39l-7.31,9.33c-.29.37-.51,1.46-.47,1.84.04.38,1.27.17,1.64-.09,4.19-2.91,7.6-6.94,10.81-11l38.39-.19,42.55-.56c-1.23,2.65-8.11,11.67-5.97,13.5,1.2,1.03,3.79-2.74,4.43-3.73l6.34-9.87,36.13-.4,27.75-.16-6.26,13.45c3.98,2.9,8.88-11.32,10.54-13.67l25.71-.81,42.4-.96c-.15,4.68-3.66,14.73-3.23,17.46.05.34,1.38.73,1.65.47,1.12-1.11,2.43-3.83,2.76-5.68l2.2-12.22,34.32-.3,22.57-.61c.15,5.38.07,10.56-1.55,15.52-.28.84-.57,1.51-.37,2,.2.49,1.93.83,2.37.53,4.52-3.04,3.97-13.33,4.36-18.14l70.36-.36,4.96,17.87c.18.63,1.02,1.54,1.55,1.6,2.67.3,1.73-6.94,1.27-8.66l-2.75-10.18.84-.73,38.55-.26,41.79-.11c1.07,2.92,1.98,5.43,4.06,7.46.5.48,2.24.34,2.6-.2.31-.46.85-1.73.67-2.25l-1.68-4.82s.44-.2.81-.37l26.51-.89,28.71-.89,20.54-.81c1.52-.06,3.22,2.74,6.84,4.91.87.52,3.1-.06,3.03-1.18-.24-3.46-3.37-4.03-.64-4.17l23.51-1.18,33.5-.62,25.15-.09c2.44,2.09,4.78,3.84,7.58,5.46,1.71.99,5.05-.25,4.43-.75l-1.16-.95c-.13-.1-.53-.4-.59-.46l-2.92-3.26,31.38-.23c2.55-.02,5.55-.58,6.58-2.73,1.23-2.57-3.7-4.05-6.73-4.03l-37.77.23-9.05-8.41c-4.79-4.45-9.79-8.48-14.24-13.27l-9.92-10.67-6.73-6.96c-1.34-1.39-2.24-1.18-.53-1.45ZM281.25,194.41c6.19-3.09,7.79-1.04,12.61,1.73,8.86,5.08,9.63-1.44,13.06,2.22.09.97-1.76,2.08-2.9,2.22-5.02.64-9.97-.85-14.07-3.95-4.61-3.49-6.6.56-8.8-.29-.46-.18-.37-1.7.09-1.93ZM262.59,202.76c-10.31-3.42-20.53-.69-28.73-4.9-3.03-1.55-4.5-5.06-4.93-8.46,8.14,3.64,5.37,6.8,15.99,7.67,2.43.2,4.94.66,7.47.6,13.47-.3,12.19,5.74,10.2,5.08ZM646.76,353.32l15.84,10.89,17.36,12.65-3.92-.23-22.14-.85-19.01-.67-25.56-.19-22.06-19.29-14.84-13.01,59.73-.29,14.58,10.99ZM414.81,343.5l38.12-.18,12.81,22.35,6.67,10.62-35.41,2.03-12.74.4c-1.14-5.77-2.4-10.95-4.09-16.49l-5.37-18.72ZM419.54,378.72l-41.13.32-.92-35.92,9.53-.17,23.41.57,4.81,17.93,4.3,17.27ZM533.7,374.92l-42.68.37-12.84.59-7.86-12-11.98-20.55,44.63-.04c10.09,11.57,20.18,19.61,30.72,31.63ZM508.75,343.26l57.1-.71,17.82,15.89,18.63,16.42-62.4.12c-10.34-11.74-20.57-19.86-31.15-31.72ZM437.93,384.3l29.6-1.33,8.74-.4c4.07,6.95,7.88,13.76,11.29,21.08,2.33,5,4.86,9.56,7.76,14.51l-20.13.24c-7.05.09-13.78.82-21.13.77l-14.39.27-7.86.4-6.62-35.19,12.74-.37ZM492.26,402.32c-3.16-6.94-6.67-13.26-10.42-20.18l49.87-.79,7.83-.06c7.8,8.06,14.18,16.82,20.66,25.98l6.96,9.83-29.79.45c-12.61.19-24.47.77-36.8.62-3.09-5.37-5.81-10.39-8.3-15.85ZM560.58,399.85c-4.67-6.62-9.54-12.52-15.08-18.72l63.21-.59,8.59,7.1c7.84,6.48,15.28,13.04,22.66,20.06l10.02,9.53c-7.54.37-14.28-.23-21.75-.27l-55.76-.25-11.9-16.86ZM599.45,313.3c.81,1.53,1.67,3.01,2.99,4.14l23.57,20.1-13.93.14-44.61.28-13.14-11.34-14.68-12.91,59.8-.41ZM502.61,314.34c11.33-.57,22.54-.65,33.83-.64.03,1.53.48,2.67,1.44,3.59l10.76,9.87,11.9,10.66c-8.36.49-16.35.17-24.81.15l-31.36-.06c-3.3-4.03-6.3-7.97-9.23-12.19l-7.39-10.65,14.85-.74ZM483.46,315.25l15.17,22.76-43.35.33-10.22-20.6c-.4-.8-.88-1.51-1.44-2.42l39.84-.07ZM425.51,316.49l13.84-.95c-.29,1.65,1.11,2.48,1.62,3.54l9.12,19.24-11.68.17-24.96.17-5.83-21.61c6.24-.02,11.87-.15,17.89-.56ZM394.52,317.19l9.73-.13,4.9,21.57-19.95-.45-11.77-.14-.45-19.95c5.84-.56,11.58-.82,17.54-.9ZM376.04,406.54l2.19-21.77,42.31-.22,6.65,35.65-18.11.3-19.85.98-14.23.73c0-5.44.49-10.27,1.04-15.68ZM361.13,318.9l13.21-.76-.11,19.94-17.35.86-9.73.21,5.71-19.97,8.26-.28ZM374.21,343.12l-.56,35.93-37.89.56,6.13-23.34,3.83-12.18,20.44-.76,8.06-.21ZM325,320.04l24.28-.75-6.46,20.14-20.07.5c3.03-7.08,2.28-12.72,2.25-19.89ZM341.24,344.53l-5.04,15.98-4.86,19.41-34.21.67-16.29.43c1.7-3.5,3.02-6.64,4.98-9.78l9.74-15.63,10.3-1.19c2.1-.24,4.28-1.25,6.07-2.27,3.11-2.07,5.65-4.32,8.06-7.4l21.25-.22ZM234.7,372.05l-7.61,10.88-54.74,3.21-13.83.49,23.88-25.42c4.32-4.6,8.45-8.94,13.08-13.31l19.73-.76,11.25-.55c6.89,6.38,11.09,6.76,20.1,7.79-3.59,6.19-7.76,11.81-11.85,17.66ZM251.1,354.42l24.33,1.02,14.25.6-8.21,13.18c-2.32,3.72-3.86,7.63-5.93,11.9l-18.71.66-24.89.73,13.42-19.05,5.74-9.04ZM165.6,372.4l-13.69,14.38-12.85.3-21.65.77-17.85.2,17.97-17.27c7.48-7.18,14.83-14.16,22.87-20.5l18.6-.59,14.59-.8,14.99-.42-22.98,23.93ZM153.21,392.65l22.53-1,47.36-2.59c-3.66,6.46-7.62,12.37-11.77,18.55l-11.29,16.82-8.18.23c-5.16.15-9.9.75-15.44.75l-50.34.04,9.73-11.91,4.48-5.3,12.9-15.61ZM220.46,401.52l7.67-12.68c9.57-.81,18.72-.86,28.26-1.21l16.12-.59-6.31,15.27-8.86,21.21c-11.21-1.28-22.27-.58-33.91-.07l-17.93.79,14.96-22.73ZM270.43,403.67c2.44-5.68,4.62-11.1,7.3-16.7l10.96-.28,30.54-.84,10.63-.06-7.15,26.26-3.03,12.16c-2.66.05-5.59.18-8.37.02l-15.48-.87-33.89.08,8.47-19.76ZM316.78,269.04c1.25,1.63,3.77,1.33,3.61,4.73-6.13-4.05-13-6.2-20.32-7.73-6.58-1.37-12.58-2.51-19.4-3.11l-.05-3.77c12.58,2.16,24.79,4.08,36.16,9.87ZM235.6,263.49c9.31-5.08,22.66-6.56,33.45-6.07l-.12,3.91c-9.58-.47-17.19-.39-27.01,1.48-5.39,1.02-9.42,4.79-13.51,8.11-1.08-2.75,4.99-6.22,7.2-7.42ZM223.33,326.27l.8-16.64c.25-5.16.36-10.08,1.02-15.17l2.48-19.01c3.21.53,5.76,1.01,8.76,1.24,19.84,1.53,26.63,6.02,49.63,5.72l12.32-.16,9.9-1.62c4.41-.72,8.63-1.32,12.62-3.27l-.14,32.26.17,6.74c.3,11.75.76,23.09-8.97,31.58-1.29,1.12-3.46,2.15-4.98,2.95-9.17,1.43-18.18,2.45-27.42,1.53l-8.89-.89c-5.2-.52-10.27-1.89-15.55-1.88-7.45.02-11.28-.32-18.43-.41-3.57-1.74-7.76-3.63-9.92-7.25-2.72-4.58-3.66-10.42-3.41-15.71ZM219.8,322.52c-.44,6.81.23,13.17,3.08,19.27l-22.36,1.04,8.09-8.02c4.11-3.69,7.6-7.63,11.18-12.29ZM217.43,320.44c-2.68,3.05-5.35,5.79-8.31,8.6l-14.6,13.89-18.49.83-18.77,1.01-11.16.62,10.37-9.05,17.22-16.05,43.72.15ZM93.43,343.28c8.51-7.15,16.6-14.45,24.3-22.46,4.73.05,9-.05,13.58-.11l37.58-.49c-5.33,4.01-9.92,8.8-15.2,13.14l-15.13,12.43c-10.67.5-20.88.49-31.65-.23-5.5-.37-10.34-.17-15.85.08.71-.81,1.46-1.6,2.37-2.36ZM70.67,388.44l-8.19-.48-18.97.19,24.93-23.48,15.62-13.42c7.74-.54,15.29-.99,23.1-.56,8.3.46,16.25.07,24.89.07l-18.46,16.45-22.19,21.15-20.74.07ZM71.48,417.89c7.5-8.4,14.23-17.29,22.87-24.74l23.93.07,28.7-.6-10.03,12.29-8.48,10.71-8.53,10.03-31.81.43-12.67.87c-4.24.29-8.14.56-12.59.61l8.63-9.67ZM85.22,471.84l-13.45.47c-3.05.11-6,.43-9.21.73l-12.53,1.15c-10.76.99-21.34.9-31.76.51,5.52-5.86,10.39-11.45,16.07-16.72,4.41-4.09,8.68-7.89,12.66-12.42l10.87-12.14,19.21-1.1,10.73-.71,27.54-.05-11.46,15.25-15.69,21.28-2.99,3.74ZM117.63,471.51l-27.1.12,18.57-24.52,11.99-15.56,33.92-.2c11.21-.07,22.01-.15,33.16-.87,2.95-.19,5.61-.49,8.35-.27l-13.39,22.01-13.53,19.46-51.98-.18ZM236.44,471.68h-61.72s13.43-18.99,13.43-18.99l13.87-22.7,12.31-.91,19.45-.75c7.08-.27,13.81-.13,21.29.66-4.08,11.69-9.21,22.63-14.49,33.86l-4.15,8.83ZM307.68,469.65c-13.55-.02-26.57.32-39.95.74l-26.65.84,12.05-25.87,6.51-16.33c11.8.03,23.4-.06,35.21.75,7.81.53,15.17,1.24,23.14,1.26l-3.87,16.29-6.44,22.33ZM366.75,453.35c-.56,4.99-.02,10.04-.14,15.03l-24.35.86-31.22.39,7.46-23.51,3.87-15.24c11.71-.1,22.97.05,34.52-.75l12.56-.87-2.7,24.1ZM369.62,422.56l-18.91,1.3-26.75.24,10.3-38.64,23.96-.53,15.2-.13-2.38,21.35c-.61,5.44-1.14,10.56-1.41,16.42ZM371.75,468.33c-.03-5.2-.19-10.36.4-15.54l2.74-23.91,15.68-.89,18.13-.85,20.31-.3,6.5,26.84,3.43,14.17-67.19.48ZM491.2,467.73l-47.28.16c-1.78-5.12-2.68-10.1-3.95-15.28l-6.36-25.93,6.96-.41c10.88.11,21.39-.49,32.29-.67l26.93-.44c8.83,13.8,17.01,27.5,24.69,42.32l-33.29.24ZM588.43,465.48l-27.07.96-28.88,1.07c-2.57.1-2.77-.39-3.77-2.14l-14.42-25.3-9.05-14.77,3.96-.3,30.95-.99,31.56-.92c6.46,8.22,13.11,15.81,20.21,23.43,5.23,5.62,9.4,11.68,13.61,18.19l-17.09.77ZM671.94,439.45c2.15,2.73,4.34,5.11,6.81,7.53l15.89,15.58-39.58.3-22.87.8-19.86.94-7.86-10.51c-2.53-3.35-5.03-6.43-7.83-9.58l-19.35-21.73,59.25-.16c6.41-.02,12.26-.03,18.7-.31l16.71,17.15ZM656.18,417.35l-14.21-13.48c-8.54-8.1-17-15.58-26.35-23.4l20.15-.23,17.73.41,23.02.6,10.43.46,17.65,13.09,22.26,17.69,4.98,3.87-12.4.41c-5.34.18-10.56,1.13-15.91.89l-12.87-.59c-5.34-.24-10.54-1.04-15.92-.74l-18.56,1.01Z"/>
      </g>
      <g>
        <path class="cls-4" d="M619.19,427.52H135.91c-23.06,0-41.82-18.76-41.82-41.82V41.82C94.09,18.76,112.85,0,135.91,0h483.28c23.06,0,41.82,18.76,41.82,41.82v343.87c0,23.06-18.76,41.82-41.82,41.82ZM135.91,9.29c-17.94,0-32.53,14.59-32.53,32.53v343.87c0,17.94,14.59,32.53,32.53,32.53h483.28c17.94,0,32.53-14.59,32.53-32.53V41.82c0-17.94-14.59-32.53-32.53-32.53H135.91Z"/>
        <path class="cls-4" d="M619.19,427.52H135.91c-23.06,0-41.82-18.76-41.82-41.82V41.82C94.09,18.76,112.85,0,135.91,0h483.28c23.06,0,41.82,18.76,41.82,41.82v343.87c0,23.06-18.76,41.82-41.82,41.82ZM135.91,9.29c-17.94,0-32.53,14.59-32.53,32.53v343.87c0,17.94,14.59,32.53,32.53,32.53h483.28c17.94,0,32.53-14.59,32.53-32.53V41.82c0-17.94-14.59-32.53-32.53-32.53H135.91Z"/>
      </g>
    </g>
  </g>
</svg>